<?xml version="1.0" standalone="no"?>
<svg xmlns:xlink="http://www.w3.org/1999/xlink" id="wave" style="transform:rotate(0deg); transition: 0.3s" viewBox="0 0 1440 490" version="1.1" xmlns="http://www.w3.org/2000/svg"><defs><linearGradient id="sw-gradient-0" x1="0" x2="0" y1="1" y2="0"><stop stop-color="rgba(243, 106, 62, 1)" offset="0%"/><stop stop-color="rgba(255, 179, 11, 1)" offset="100%"/></linearGradient></defs><path style="transform:translate(0, 0px); opacity:1" fill="url(#sw-gradient-0)" d="M0,441L26.7,367.5C53.3,294,107,147,160,73.5C213.3,0,267,0,320,57.2C373.3,114,427,229,480,228.7C533.3,229,587,114,640,65.3C693.3,16,747,33,800,89.8C853.3,147,907,245,960,285.8C1013.3,327,1067,310,1120,269.5C1173.3,229,1227,163,1280,163.3C1333.3,163,1387,229,1440,277.7C1493.3,327,1547,359,1600,375.7C1653.3,392,1707,392,1760,334.8C1813.3,278,1867,163,1920,114.3C1973.3,65,2027,82,2080,138.8C2133.3,196,2187,294,2240,318.5C2293.3,343,2347,294,2400,269.5C2453.3,245,2507,245,2560,253.2C2613.3,261,2667,278,2720,277.7C2773.3,278,2827,261,2880,269.5C2933.3,278,2987,310,3040,285.8C3093.3,261,3147,180,3200,187.8C3253.3,196,3307,294,3360,294C3413.3,294,3467,196,3520,155.2C3573.3,114,3627,131,3680,130.7C3733.3,131,3787,114,3813,106.2L3840,98L3840,490L3813.3,490C3786.7,490,3733,490,3680,490C3626.7,490,3573,490,3520,490C3466.7,490,3413,490,3360,490C3306.7,490,3253,490,3200,490C3146.7,490,3093,490,3040,490C2986.7,490,2933,490,2880,490C2826.7,490,2773,490,2720,490C2666.7,490,2613,490,2560,490C2506.7,490,2453,490,2400,490C2346.7,490,2293,490,2240,490C2186.7,490,2133,490,2080,490C2026.7,490,1973,490,1920,490C1866.7,490,1813,490,1760,490C1706.7,490,1653,490,1600,490C1546.7,490,1493,490,1440,490C1386.7,490,1333,490,1280,490C1226.7,490,1173,490,1120,490C1066.7,490,1013,490,960,490C906.7,490,853,490,800,490C746.7,490,693,490,640,490C586.7,490,533,490,480,490C426.7,490,373,490,320,490C266.7,490,213,490,160,490C106.7,490,53,490,27,490L0,490Z"/></svg>