<?xml version="1.0" standalone="no"?>
<svg xmlns:xlink="http://www.w3.org/1999/xlink" id="wave" style="transform:rotate(0deg); transition: 0.3s" viewBox="0 0 1440 490" version="1.1" xmlns="http://www.w3.org/2000/svg"><defs><linearGradient id="sw-gradient-0" x1="0" x2="0" y1="1" y2="0"><stop stop-color="rgba(205, 53, 69, 1)" offset="0%"/><stop stop-color="rgba(205, 53, 69, 1)" offset="100%"/></linearGradient></defs><path style="transform:translate(0, 0px); opacity:1" fill="url(#sw-gradient-0)" d="M0,294L34.3,285.8C68.6,278,137,261,206,269.5C274.3,278,343,310,411,310.3C480,310,549,278,617,220.5C685.7,163,754,82,823,114.3C891.4,147,960,294,1029,343C1097.1,392,1166,343,1234,277.7C1302.9,212,1371,131,1440,81.7C1508.6,33,1577,16,1646,32.7C1714.3,49,1783,98,1851,147C1920,196,1989,245,2057,220.5C2125.7,196,2194,98,2263,114.3C2331.4,131,2400,261,2469,310.3C2537.1,359,2606,327,2674,269.5C2742.9,212,2811,131,2880,98C2948.6,65,3017,82,3086,122.5C3154.3,163,3223,229,3291,236.8C3360,245,3429,196,3497,171.5C3565.7,147,3634,147,3703,130.7C3771.4,114,3840,82,3909,114.3C3977.1,147,4046,245,4114,302.2C4182.9,359,4251,376,4320,351.2C4388.6,327,4457,261,4526,220.5C4594.3,180,4663,163,4731,179.7C4800,196,4869,245,4903,269.5L4937.1,294L4937.1,490L4902.9,490C4868.6,490,4800,490,4731,490C4662.9,490,4594,490,4526,490C4457.1,490,4389,490,4320,490C4251.4,490,4183,490,4114,490C4045.7,490,3977,490,3909,490C3840,490,3771,490,3703,490C3634.3,490,3566,490,3497,490C3428.6,490,3360,490,3291,490C3222.9,490,3154,490,3086,490C3017.1,490,2949,490,2880,490C2811.4,490,2743,490,2674,490C2605.7,490,2537,490,2469,490C2400,490,2331,490,2263,490C2194.3,490,2126,490,2057,490C1988.6,490,1920,490,1851,490C1782.9,490,1714,490,1646,490C1577.1,490,1509,490,1440,490C1371.4,490,1303,490,1234,490C1165.7,490,1097,490,1029,490C960,490,891,490,823,490C754.3,490,686,490,617,490C548.6,490,480,490,411,490C342.9,490,274,490,206,490C137.1,490,69,490,34,490L0,490Z"/><defs><linearGradient id="sw-gradient-1" x1="0" x2="0" y1="1" y2="0"><stop stop-color="rgba(205, 53, 69, 1)" offset="0%"/><stop stop-color="rgba(205, 53, 69, 1)" offset="100%"/></linearGradient></defs><path style="transform:translate(0, 50px); opacity:0.9" fill="url(#sw-gradient-1)" d="M0,98L34.3,89.8C68.6,82,137,65,206,122.5C274.3,180,343,310,411,351.2C480,392,549,343,617,277.7C685.7,212,754,131,823,89.8C891.4,49,960,49,1029,98C1097.1,147,1166,245,1234,245C1302.9,245,1371,147,1440,89.8C1508.6,33,1577,16,1646,73.5C1714.3,131,1783,261,1851,302.2C1920,343,1989,294,2057,294C2125.7,294,2194,343,2263,375.7C2331.4,408,2400,425,2469,367.5C2537.1,310,2606,180,2674,122.5C2742.9,65,2811,82,2880,98C2948.6,114,3017,131,3086,187.8C3154.3,245,3223,343,3291,334.8C3360,327,3429,212,3497,212.3C3565.7,212,3634,327,3703,326.7C3771.4,327,3840,212,3909,196C3977.1,180,4046,261,4114,302.2C4182.9,343,4251,343,4320,285.8C4388.6,229,4457,114,4526,89.8C4594.3,65,4663,131,4731,155.2C4800,180,4869,163,4903,155.2L4937.1,147L4937.1,490L4902.9,490C4868.6,490,4800,490,4731,490C4662.9,490,4594,490,4526,490C4457.1,490,4389,490,4320,490C4251.4,490,4183,490,4114,490C4045.7,490,3977,490,3909,490C3840,490,3771,490,3703,490C3634.3,490,3566,490,3497,490C3428.6,490,3360,490,3291,490C3222.9,490,3154,490,3086,490C3017.1,490,2949,490,2880,490C2811.4,490,2743,490,2674,490C2605.7,490,2537,490,2469,490C2400,490,2331,490,2263,490C2194.3,490,2126,490,2057,490C1988.6,490,1920,490,1851,490C1782.9,490,1714,490,1646,490C1577.1,490,1509,490,1440,490C1371.4,490,1303,490,1234,490C1165.7,490,1097,490,1029,490C960,490,891,490,823,490C754.3,490,686,490,617,490C548.6,490,480,490,411,490C342.9,490,274,490,206,490C137.1,490,69,490,34,490L0,490Z"/></svg>