<?xml version="1.0" standalone="no"?>
<svg xmlns:xlink="http://www.w3.org/1999/xlink" id="wave" style="transform:rotate(0deg); transition: 0.3s" viewBox="0 0 1440 490" version="1.1" xmlns="http://www.w3.org/2000/svg"><defs><linearGradient id="sw-gradient-0" x1="0" x2="0" y1="1" y2="0"><stop stop-color="rgba(205, 53, 69, 1)" offset="0%"/><stop stop-color="rgba(205, 53, 69, 1)" offset="100%"/></linearGradient></defs><path style="transform:translate(0, 0px); opacity:1" fill="url(#sw-gradient-0)" d="M0,441L24,392C48,343,96,245,144,171.5C192,98,240,49,288,81.7C336,114,384,229,432,302.2C480,376,528,408,576,351.2C624,294,672,147,720,89.8C768,33,816,65,864,106.2C912,147,960,196,1008,228.7C1056,261,1104,278,1152,269.5C1200,261,1248,229,1296,179.7C1344,131,1392,65,1440,32.7C1488,0,1536,0,1584,65.3C1632,131,1680,261,1728,277.7C1776,294,1824,196,1872,179.7C1920,163,1968,229,2016,220.5C2064,212,2112,131,2160,98C2208,65,2256,82,2304,81.7C2352,82,2400,65,2448,89.8C2496,114,2544,180,2592,204.2C2640,229,2688,212,2736,179.7C2784,147,2832,98,2880,122.5C2928,147,2976,245,3024,277.7C3072,310,3120,278,3168,269.5C3216,261,3264,278,3312,269.5C3360,261,3408,229,3432,212.3L3456,196L3456,490L3432,490C3408,490,3360,490,3312,490C3264,490,3216,490,3168,490C3120,490,3072,490,3024,490C2976,490,2928,490,2880,490C2832,490,2784,490,2736,490C2688,490,2640,490,2592,490C2544,490,2496,490,2448,490C2400,490,2352,490,2304,490C2256,490,2208,490,2160,490C2112,490,2064,490,2016,490C1968,490,1920,490,1872,490C1824,490,1776,490,1728,490C1680,490,1632,490,1584,490C1536,490,1488,490,1440,490C1392,490,1344,490,1296,490C1248,490,1200,490,1152,490C1104,490,1056,490,1008,490C960,490,912,490,864,490C816,490,768,490,720,490C672,490,624,490,576,490C528,490,480,490,432,490C384,490,336,490,288,490C240,490,192,490,144,490C96,490,48,490,24,490L0,490Z"/><defs><linearGradient id="sw-gradient-1" x1="0" x2="0" y1="1" y2="0"><stop stop-color="rgba(205, 53, 69, 1)" offset="0%"/><stop stop-color="rgba(205, 53, 69, 1)" offset="100%"/></linearGradient></defs><path style="transform:translate(0, 50px); opacity:0.9" fill="url(#sw-gradient-1)" d="M0,49L24,106.2C48,163,96,278,144,302.2C192,327,240,261,288,236.8C336,212,384,229,432,212.3C480,196,528,147,576,155.2C624,163,672,229,720,228.7C768,229,816,163,864,171.5C912,180,960,261,1008,302.2C1056,343,1104,343,1152,302.2C1200,261,1248,180,1296,163.3C1344,147,1392,196,1440,204.2C1488,212,1536,180,1584,204.2C1632,229,1680,310,1728,326.7C1776,343,1824,294,1872,285.8C1920,278,1968,310,2016,285.8C2064,261,2112,180,2160,187.8C2208,196,2256,294,2304,351.2C2352,408,2400,425,2448,383.8C2496,343,2544,245,2592,236.8C2640,229,2688,310,2736,310.3C2784,310,2832,229,2880,228.7C2928,229,2976,310,3024,359.3C3072,408,3120,425,3168,400.2C3216,376,3264,310,3312,236.8C3360,163,3408,82,3432,40.8L3456,0L3456,490L3432,490C3408,490,3360,490,3312,490C3264,490,3216,490,3168,490C3120,490,3072,490,3024,490C2976,490,2928,490,2880,490C2832,490,2784,490,2736,490C2688,490,2640,490,2592,490C2544,490,2496,490,2448,490C2400,490,2352,490,2304,490C2256,490,2208,490,2160,490C2112,490,2064,490,2016,490C1968,490,1920,490,1872,490C1824,490,1776,490,1728,490C1680,490,1632,490,1584,490C1536,490,1488,490,1440,490C1392,490,1344,490,1296,490C1248,490,1200,490,1152,490C1104,490,1056,490,1008,490C960,490,912,490,864,490C816,490,768,490,720,490C672,490,624,490,576,490C528,490,480,490,432,490C384,490,336,490,288,490C240,490,192,490,144,490C96,490,48,490,24,490L0,490Z"/></svg>